<svg width="160" height="160" viewBox="0 0 160 160" fill="none" xmlns="http://www.w3.org/2000/svg">
  <rect width="160" height="160" rx="18" fill="#FFFFFF"/>
  <rect x="14" y="14" width="40" height="40" fill="#172033"/>
  <rect x="24" y="24" width="20" height="20" fill="#FFFFFF"/>
  <rect x="106" y="14" width="40" height="40" fill="#172033"/>
  <rect x="116" y="24" width="20" height="20" fill="#FFFFFF"/>
  <rect x="14" y="106" width="40" height="40" fill="#172033"/>
  <rect x="24" y="116" width="20" height="20" fill="#FFFFFF"/>
  <rect x="66" y="16" width="18" height="8" fill="#F59E0B"/>
  <rect x="64" y="36" width="34" height="10" fill="#172033"/>
  <rect x="76" y="58" width="12" height="28" fill="#2563EB"/>
  <rect x="58" y="74" width="10" height="10" fill="#14B8A6"/>
  <rect x="102" y="66" width="30" height="10" fill="#172033"/>
  <rect x="118" y="86" width="10" height="34" fill="#2563EB"/>
  <rect x="64" y="104" width="18" height="18" fill="#172033"/>
  <rect x="88" y="120" width="22" height="8" fill="#14B8A6"/>
  <rect x="134" y="132" width="12" height="12" fill="#F97316"/>
</svg>
