<svg width="160" height="160" viewBox="0 0 160 160" fill="none" xmlns="http://www.w3.org/2000/svg">
  <rect width="160" height="160" rx="18" fill="#FFFFFF"/>
  <rect x="14" y="14" width="40" height="40" fill="#172033"/>
  <rect x="24" y="24" width="20" height="20" fill="#FFFFFF"/>
  <rect x="106" y="14" width="40" height="40" fill="#172033"/>
  <rect x="116" y="24" width="20" height="20" fill="#FFFFFF"/>
  <rect x="14" y="106" width="40" height="40" fill="#172033"/>
  <rect x="24" y="116" width="20" height="20" fill="#FFFFFF"/>
  <rect x="68" y="18" width="10" height="10" fill="#2563EB"/>
  <rect x="84" y="18" width="8" height="24" fill="#172033"/>
  <rect x="62" y="48" width="26" height="8" fill="#14B8A6"/>
  <rect x="96" y="62" width="10" height="24" fill="#172033"/>
  <rect x="116" y="70" width="28" height="8" fill="#2563EB"/>
  <rect x="64" y="76" width="18" height="18" fill="#172033"/>
  <rect x="86" y="96" width="14" height="14" fill="#F97316"/>
  <rect x="108" y="100" width="8" height="38" fill="#172033"/>
  <rect x="124" y="116" width="22" height="8" fill="#14B8A6"/>
  <rect x="66" y="124" width="28" height="10" fill="#2563EB"/>
</svg>
